STARTFONT 2.1
COMMENT
COMMENT /efont/ 16dot Kanji font
COMMENT 	for JISX 0201, 1976
COMMENT
COMMENT          This file includeds only the difference from
COMMENT          latin1/font_src.bit. Please marge them with
COMMENT          `bdfmarge' command.
COMMENT
COMMENT Designed by /efont/ <efont@ring.gr.jp>, 2000
COMMENT
FONT -Shinonome-Gothic-Bold-R-Normal--18-170-75-75-C-90-JISX0201.1976-0
SIZE 18 75 75
FONTBOUNDINGBOX 9 18 0 -2
STARTPROPERTIES 20
FONTNAME_REGISTRY ""
FOUNDRY "Shinonome"
FAMILY_NAME "Gothic"
WEIGHT_NAME "Bold"
SLANT "R"
SETWIDTH_NAME "Normal"
ADD_STYLE_NAME ""
PIXEL_SIZE 18
POINT_SIZE 169
RESOLUTION_X 75
RESOLUTION_Y 75
SPACING "C"
AVERAGE_WIDTH 90
CHARSET_REGISTRY "JISX0201.1976"
CHARSET_ENCODING "0"
DEFAULT_CHAR 32
FONT_DESCENT 2
FONT_ASCENT 16
COPYRIGHT "Public Domain"
_XMBDFED_INFO "Edited with xmbdfed 4.4."
ENDPROPERTIES
CHARS 221
STARTCHAR 01
ENCODING 1
SWIDTH 480 0
DWIDTH 9 0
BBX 9 18 0 -2
BITMAP
0c00
0c00
1e00
1e00
1e00
3f00
3f00
7f80
7f80
3f00
3f00
1e00
1e00
1e00
0c00
0c00
0000
0000
ENDCHAR
STARTCHAR 02
ENCODING 2
SWIDTH 480 0
DWIDTH 9 0
BBX 9 18 0 -2
BITMAP
d540
6a80
d540
6a80
d540
6a80
d540
6a80
d540
6a80
d540
6a80
d540
6a80
d540
6a80
0000
0000
ENDCHAR
STARTCHAR 03
ENCODING 3
SWIDTH 480 0
DWIDTH 9 0
BBX 9 18 0 -2
BITMAP
6600
6600
6600
6600
7e00
6600
6600
6600
0000
0fc0
0300
0300
0300
0300
0300
0300
0300
0000
ENDCHAR
STARTCHAR 04
ENCODING 4
SWIDTH 480 0
DWIDTH 9 0
BBX 9 18 0 -2
BITMAP
7f00
6000
6000
7c00
6000
6000
6000
6000
0000
1fc0
1800
1800
1f00
1800
1800
1800
1800
0000
ENDCHAR
STARTCHAR 05
ENCODING 5
SWIDTH 480 0
DWIDTH 9 0
BBX 9 18 0 -2
BITMAP
7c00
c600
c000
c000
c000
c000
c600
7c00
0000
3f00
3180
3180
3f00
3600
3300
3300
3180
0000
ENDCHAR
STARTCHAR 06
ENCODING 6
SWIDTH 480 0
DWIDTH 9 0
BBX 9 18 0 -2
BITMAP
6000
6000
6000
6000
6000
6000
6000
7f00
0000
1fc0
1800
1800
1f80
1800
1800
1800
1800
0000
ENDCHAR
STARTCHAR 07
ENCODING 7
SWIDTH 480 0
DWIDTH 9 0
BBX 9 18 0 -2
BITMAP
0000
0000
1c00
3600
6300
6300
3600
1c00
0000
0000
0000
0000
0000
0000
0000
0000
0000
0000
ENDCHAR
STARTCHAR    8
ENCODING 8
SWIDTH 480 0
DWIDTH 9 0
BBX 9 18 0 -2
BITMAP
0000
0000
0000
0000
0c00
0c00
0c00
7f80
0c00
0c00
0c00
0000
0000
0000
7f80
0000
0000
0000
ENDCHAR
STARTCHAR    9
ENCODING 9
SWIDTH 480 0
DWIDTH 9 0
BBX 9 18 0 -2
BITMAP
e300
e300
d300
d300
db00
db00
cd00
cd00
c700
3000
3000
3000
3000
3000
3000
3000
3f80
0000
ENDCHAR
STARTCHAR    a
ENCODING 10
SWIDTH 480 0
DWIDTH 9 0
BBX 9 18 0 -2
BITMAP
cc00
cc00
cc00
cc00
cc00
6800
6800
3000
0000
1f80
0600
0600
0600
0600
0600
0600
0600
0000
ENDCHAR
STARTCHAR    b
ENCODING 11
SWIDTH 480 0
DWIDTH 9 0
BBX 9 18 0 -2
BITMAP
0c00
0c00
0c00
0c00
0c00
0c00
0c00
0c00
0c00
fc00
0000
0000
0000
0000
0000
0000
0000
0000
ENDCHAR
STARTCHAR    c
ENCODING 12
SWIDTH 480 0
DWIDTH 9 0
BBX 9 18 0 -2
BITMAP
0000
0000
0000
0000
0000
0000
0000
0000
0000
fc00
0c00
0c00
0c00
0c00
0c00
0c00
0c00
0c00
ENDCHAR
STARTCHAR    d
ENCODING 13
SWIDTH 480 0
DWIDTH 9 0
BBX 9 18 0 -2
BITMAP
0000
0000
0000
0000
0000
0000
0000
0000
0000
0fc0
0c00
0c00
0c00
0c00
0c00
0c00
0c00
0c00
ENDCHAR
STARTCHAR    e
ENCODING 14
SWIDTH 480 0
DWIDTH 9 0
BBX 9 18 0 -2
BITMAP
0c00
0c00
0c00
0c00
0c00
0c00
0c00
0c00
0c00
0fc0
0000
0000
0000
0000
0000
0000
0000
0000
ENDCHAR
STARTCHAR    f
ENCODING 15
SWIDTH 480 0
DWIDTH 9 0
BBX 9 18 0 -2
BITMAP
0c00
0c00
0c00
0c00
0c00
0c00
0c00
0c00
0c00
ffc0
0c00
0c00
0c00
0c00
0c00
0c00
0c00
0c00
ENDCHAR
STARTCHAR   10
ENCODING 16
SWIDTH 480 0
DWIDTH 9 0
BBX 9 18 0 -2
BITMAP
0000
0000
ffc0
0000
0000
0000
0000
0000
0000
0000
0000
0000
0000
0000
0000
0000
0000
0000
ENDCHAR
STARTCHAR   11
ENCODING 17
SWIDTH 480 0
DWIDTH 9 0
BBX 9 18 0 -2
BITMAP
0000
0000
0000
0000
0000
ffc0
0000
0000
0000
0000
0000
0000
0000
0000
0000
0000
0000
0000
ENDCHAR
STARTCHAR   12
ENCODING 18
SWIDTH 480 0
DWIDTH 9 0
BBX 9 18 0 -2
BITMAP
0000
0000
0000
0000
0000
0000
0000
0000
0000
ffc0
0000
0000
0000
0000
0000
0000
0000
0000
ENDCHAR
STARTCHAR   13
ENCODING 19
SWIDTH 480 0
DWIDTH 9 0
BBX 9 18 0 -2
BITMAP
0000
0000
0000
0000
0000
0000
0000
0000
0000
0000
0000
0000
ffc0
0000
0000
0000
0000
0000
ENDCHAR
STARTCHAR   14
ENCODING 20
SWIDTH 480 0
DWIDTH 9 0
BBX 9 18 0 -2
BITMAP
0000
0000
0000
0000
0000
0000
0000
0000
0000
0000
0000
0000
0000
0000
0000
0000
ffc0
0000
ENDCHAR
STARTCHAR   15
ENCODING 21
SWIDTH 480 0
DWIDTH 9 0
BBX 9 18 0 -2
BITMAP
0c00
0c00
0c00
0c00
0c00
0c00
0c00
0c00
0c00
0fc0
0c00
0c00
0c00
0c00
0c00
0c00
0c00
0c00
ENDCHAR
STARTCHAR   16
ENCODING 22
SWIDTH 480 0
DWIDTH 9 0
BBX 9 18 0 -2
BITMAP
0c00
0c00
0c00
0c00
0c00
0c00
0c00
0c00
0c00
fc00
0c00
0c00
0c00
0c00
0c00
0c00
0c00
0c00
ENDCHAR
STARTCHAR   17
ENCODING 23
SWIDTH 480 0
DWIDTH 9 0
BBX 9 18 0 -2
BITMAP
0c00
0c00
0c00
0c00
0c00
0c00
0c00
0c00
0c00
ffc0
0000
0000
0000
0000
0000
0000
0000
0000
ENDCHAR
STARTCHAR   18
ENCODING 24
SWIDTH 480 0
DWIDTH 9 0
BBX 9 18 0 -2
BITMAP
0000
0000
0000
0000
0000
0000
0000
0000
0000
ffc0
0c00
0c00
0c00
0c00
0c00
0c00
0c00
0c00
ENDCHAR
STARTCHAR   19
ENCODING 25
SWIDTH 480 0
DWIDTH 9 0
BBX 9 18 0 -2
BITMAP
0c00
0c00
0c00
0c00
0c00
0c00
0c00
0c00
0c00
0c00
0c00
0c00
0c00
0c00
0c00
0c00
0c00
0c00
ENDCHAR
STARTCHAR   1a
ENCODING 26
SWIDTH 480 0
DWIDTH 9 0
BBX 9 18 0 -2
BITMAP
0000
0000
0380
0e00
3800
e000
3800
0e00
0380
0000
0000
ff80
0000
0000
ff80
0000
0000
0000
ENDCHAR
STARTCHAR   1b
ENCODING 27
SWIDTH 480 0
DWIDTH 9 0
BBX 9 18 0 -2
BITMAP
0000
0000
e000
3800
0e00
0380
0e00
3800
e000
0000
0000
ff80
0000
0000
ff80
0000
0000
0000
ENDCHAR
STARTCHAR   1c
ENCODING 28
SWIDTH 480 0
DWIDTH 9 0
BBX 9 18 0 -2
BITMAP
0000
0000
0000
0000
0000
0000
0000
0000
ff80
3600
3600
3600
3600
3600
6600
c380
0000
0000
ENDCHAR
STARTCHAR   1d
ENCODING 29
SWIDTH 480 0
DWIDTH 9 0
BBX 9 18 0 -2
BITMAP
0000
0000
0000
0000
0000
0180
0300
ff80
0c00
1800
ff80
6000
c000
0000
0000
0000
0000
0000
ENDCHAR
STARTCHAR   1e
ENCODING 30
SWIDTH 480 0
DWIDTH 9 0
BBX 9 18 0 -2
BITMAP
0000
0000
0000
0000
1e00
3300
3000
3000
3000
3000
ff00
3000
3000
3000
7e00
d380
6000
0000
ENDCHAR
STARTCHAR   1f
ENCODING 31
SWIDTH 480 0
DWIDTH 9 0
BBX 9 18 0 -2
BITMAP
0000
0000
0000
0000
0000
0000
0000
0000
0000
0c00
0000
0000
0000
0000
0000
0000
0000
0000
ENDCHAR
STARTCHAR 20
ENCODING 32
SWIDTH 480 0
DWIDTH 9 0
BBX 9 18 0 -2
BITMAP
0000
0000
0000
0000
0000
0000
0000
0000
0000
0000
0000
0000
0000
0000
0000
0000
0000
0000
ENDCHAR
STARTCHAR 21
ENCODING 33
SWIDTH 480 0
DWIDTH 9 0
BBX 9 18 0 -2
BITMAP
0000
0c00
1e00
1e00
1e00
1e00
1e00
0c00
0c00
0c00
0c00
0c00
0000
0000
0000
0c00
0c00
0000
ENDCHAR
STARTCHAR 22
ENCODING 34
SWIDTH 480 0
DWIDTH 9 0
BBX 9 18 0 -2
BITMAP
0000
7700
7700
3300
3300
6600
0000
0000
0000
0000
0000
0000
0000
0000
0000
0000
0000
0000
ENDCHAR
STARTCHAR 23
ENCODING 35
SWIDTH 480 0
DWIDTH 9 0
BBX 9 18 0 -2
BITMAP
0000
1b00
1b00
1b00
1b00
7fc0
1b00
3600
3600
3600
3600
ff80
3600
6c00
6c00
6c00
6c00
0000
ENDCHAR
STARTCHAR 24
ENCODING 36
SWIDTH 480 0
DWIDTH 9 0
BBX 9 18 0 -2
BITMAP
0c00
3e00
6d00
cd80
cd80
cd80
cc00
6c00
3e00
0d00
0d80
cd80
cd80
cd80
6d00
3e00
0c00
0c00
ENDCHAR
STARTCHAR 25
ENCODING 37
SWIDTH 480 0
DWIDTH 9 0
BBX 9 18 0 -2
BITMAP
00c0
70c0
d980
d980
db00
db00
da00
7600
0c00
0c00
1b80
1ac0
36c0
36c0
66c0
66c0
c380
c000
ENDCHAR
STARTCHAR 26
ENCODING 38
SWIDTH 480 0
DWIDTH 9 0
BBX 9 18 0 -2
BITMAP
0000
1c00
3600
6300
6300
6600
3400
1800
3400
6600
c600
c340
c180
c340
6600
3c00
0000
0000
ENDCHAR
STARTCHAR 27
ENCODING 39
SWIDTH 480 0
DWIDTH 9 0
BBX 9 18 0 -2
BITMAP
0000
7000
7000
3000
3000
6000
0000
0000
0000
0000
0000
0000
0000
0000
0000
0000
0000
0000
ENDCHAR
STARTCHAR 28
ENCODING 40
SWIDTH 480 0
DWIDTH 9 0
BBX 9 18 0 -2
BITMAP
0300
0600
0c00
1800
1800
3000
3000
3000
3000
3000
3000
3000
3000
1800
1800
0c00
0600
0300
ENDCHAR
STARTCHAR 29
ENCODING 41
SWIDTH 480 0
DWIDTH 9 0
BBX 9 18 0 -2
BITMAP
6000
3000
1800
0c00
0c00
0600
0600
0600
0600
0600
0600
0600
0600
0c00
0c00
1800
3000
6000
ENDCHAR
STARTCHAR 2a
ENCODING 42
SWIDTH 480 0
DWIDTH 9 0
BBX 9 18 0 -2
BITMAP
0000
0000
0000
0000
0000
0c00
6d80
3500
1e00
3500
6d80
0c00
0000
0000
0000
0000
0000
0000
ENDCHAR
STARTCHAR 2b
ENCODING 43
SWIDTH 480 0
DWIDTH 9 0
BBX 9 18 0 -2
BITMAP
0000
0000
0000
0000
0c00
0c00
0c00
0c00
7f80
0c00
0c00
0c00
0c00
0000
0000
0000
0000
0000
ENDCHAR
STARTCHAR 2c
ENCODING 44
SWIDTH 480 0
DWIDTH 9 0
BBX 9 18 0 -2
BITMAP
0000
0000
0000
0000
0000
0000
0000
0000
0000
0000
0000
0000
0000
7000
7000
3000
3000
6000
ENDCHAR
STARTCHAR 2d
ENCODING 45
SWIDTH 480 0
DWIDTH 9 0
BBX 9 18 0 -2
BITMAP
0000
0000
0000
0000
0000
0000
0000
0000
7f80
0000
0000
0000
0000
0000
0000
0000
0000
0000
ENDCHAR
STARTCHAR 2e
ENCODING 46
SWIDTH 480 0
DWIDTH 9 0
BBX 9 18 0 -2
BITMAP
0000
0000
0000
0000
0000
0000
0000
0000
0000
0000
0000
0000
0000
0000
7000
7000
0000
0000
ENDCHAR
STARTCHAR 2f
ENCODING 47
SWIDTH 480 0
DWIDTH 9 0
BBX 9 18 0 -2
BITMAP
0180
0180
0300
0300
0600
0600
0c00
0c00
1800
1800
3000
3000
6000
6000
c000
c000
0000
0000
ENDCHAR
STARTCHAR 30
ENCODING 48
SWIDTH 480 0
DWIDTH 9 0
BBX 9 18 0 -2
BITMAP
0000
1e00
3300
3300
6180
6180
6180
6180
6180
6180
6180
6180
6180
3300
3300
1e00
0000
0000
ENDCHAR
STARTCHAR 31
ENCODING 49
SWIDTH 480 0
DWIDTH 9 0
BBX 9 18 0 -2
BITMAP
0000
0c00
0c00
1c00
3400
6c00
0c00
0c00
0c00
0c00
0c00
0c00
0c00
0c00
0c00
0c00
0000
0000
ENDCHAR
STARTCHAR 32
ENCODING 50
SWIDTH 480 0
DWIDTH 9 0
BBX 9 18 0 -2
BITMAP
0000
1e00
3300
6180
6180
6180
6180
0180
0300
0300
0600
0c00
1800
3000
6000
7f80
0000
0000
ENDCHAR
STARTCHAR 33
ENCODING 51
SWIDTH 480 0
DWIDTH 9 0
BBX 9 18 0 -2
BITMAP
0000
1e00
3300
6180
6180
0180
0180
0300
1e00
0300
0180
0180
6180
6180
3300
1e00
0000
0000
ENDCHAR
STARTCHAR 34
ENCODING 52
SWIDTH 480 0
DWIDTH 9 0
BBX 9 18 0 -2
BITMAP
0000
0600
0e00
0e00
1a00
3600
3600
6600
6600
c600
ff80
0600
0600
0600
0600
0600
0000
0000
ENDCHAR
STARTCHAR 35
ENCODING 53
SWIDTH 480 0
DWIDTH 9 0
BBX 9 18 0 -2
BITMAP
0000
3f00
3000
3000
3000
6000
6000
6e00
7300
0180
0180
6180
6180
6180
3300
1e00
0000
0000
ENDCHAR
STARTCHAR 36
ENCODING 54
SWIDTH 480 0
DWIDTH 9 0
BBX 9 18 0 -2
BITMAP
0000
1e00
3300
6180
6000
6000
6000
6e00
7300
6180
6180
6180
6180
6180
3300
1e00
0000
0000
ENDCHAR
STARTCHAR 37
ENCODING 55
SWIDTH 480 0
DWIDTH 9 0
BBX 9 18 0 -2
BITMAP
0000
ff80
0180
0300
0300
0600
0c00
0c00
0c00
0c00
1800
1800
1800
1800
1800
1800
0000
0000
ENDCHAR
STARTCHAR 38
ENCODING 56
SWIDTH 480 0
DWIDTH 9 0
BBX 9 18 0 -2
BITMAP
0000
1e00
3300
6180
6180
6180
6180
3300
1e00
3300
6180
6180
6180
6180
3300
1e00
0000
0000
ENDCHAR
STARTCHAR 39
ENCODING 57
SWIDTH 480 0
DWIDTH 9 0
BBX 9 18 0 -2
BITMAP
0000
1e00
3300
6180
6180
6180
6180
6180
3380
1e80
0180
0180
6180
6180
3300
1e00
0000
0000
ENDCHAR
STARTCHAR 3a
ENCODING 58
SWIDTH 480 0
DWIDTH 9 0
BBX 9 18 0 -2
BITMAP
0000
0000
0000
0000
1c00
1c00
0000
0000
0000
0000
0000
0000
1c00
1c00
0000
0000
0000
0000
ENDCHAR
STARTCHAR 3b
ENCODING 59
SWIDTH 480 0
DWIDTH 9 0
BBX 9 18 0 -2
BITMAP
0000
0000
0000
0000
1c00
1c00
0000
0000
0000
0000
0000
0000
1c00
1c00
0c00
0c00
1800
0000
ENDCHAR
STARTCHAR 3c
ENCODING 60
SWIDTH 480 0
DWIDTH 9 0
BBX 9 18 0 -2
BITMAP
0000
0000
0180
0300
0600
0c00
1800
3000
6000
3000
1800
0c00
0600
0300
0180
0000
0000
0000
ENDCHAR
STARTCHAR 3d
ENCODING 61
SWIDTH 480 0
DWIDTH 9 0
BBX 9 18 0 -2
BITMAP
0000
0000
0000
0000
0000
0000
ff80
0000
0000
0000
ff80
0000
0000
0000
0000
0000
0000
0000
ENDCHAR
STARTCHAR 3e
ENCODING 62
SWIDTH 480 0
DWIDTH 9 0
BBX 9 18 0 -2
BITMAP
0000
0000
6000
3000
1800
0c00
0600
0300
0180
0300
0600
0c00
1800
3000
6000
0000
0000
0000
ENDCHAR
STARTCHAR 3f
ENCODING 63
SWIDTH 480 0
DWIDTH 9 0
BBX 9 18 0 -2
BITMAP
0000
1e00
3300
6180
6180
6180
0180
0300
0600
0c00
0c00
0c00
0000
0000
0000
0c00
0c00
0000
ENDCHAR
STARTCHAR 40
ENCODING 64
SWIDTH 480 0
DWIDTH 9 0
BBX 9 18 0 -2
BITMAP
0000
0000
1e00
3300
6180
6180
dec0
d340
d340
d340
d340
dec0
6000
6180
3300
1e00
0000
0000
ENDCHAR
STARTCHAR 41
ENCODING 65
SWIDTH 480 0
DWIDTH 9 0
BBX 9 18 0 -2
BITMAP
0c00
0c00
1a00
1a00
1a00
3300
3300
3300
6180
6180
7f80
6180
c0c0
c0c0
c0c0
c0c0
0000
0000
ENDCHAR
STARTCHAR 42
ENCODING 66
SWIDTH 480 0
DWIDTH 9 0
BBX 9 18 0 -2
BITMAP
0000
fc00
c600
c300
c300
c300
c300
c600
fe00
c300
c180
c180
c180
c180
c300
fe00
0000
0000
ENDCHAR
STARTCHAR 43
ENCODING 67
SWIDTH 480 0
DWIDTH 9 0
BBX 9 18 0 -2
BITMAP
0000
3e00
6300
6300
c180
c000
c000
c000
c000
c000
c000
c000
c180
6300
6300
3e00
0000
0000
ENDCHAR
STARTCHAR 44
ENCODING 68
SWIDTH 480 0
DWIDTH 9 0
BBX 9 18 0 -2
BITMAP
0000
f800
ce00
c300
c300
c180
c180
c180
c180
c180
c180
c180
c300
c300
ce00
f800
0000
0000
ENDCHAR
STARTCHAR 45
ENCODING 69
SWIDTH 480 0
DWIDTH 9 0
BBX 9 18 0 -2
BITMAP
0000
ff80
c000
c000
c000
c000
c000
c000
ff00
c000
c000
c000
c000
c000
c000
ff80
0000
0000
ENDCHAR
STARTCHAR 46
ENCODING 70
SWIDTH 480 0
DWIDTH 9 0
BBX 9 18 0 -2
BITMAP
0000
ff80
c000
c000
c000
c000
c000
c000
ff00
c000
c000
c000
c000
c000
c000
c000
0000
0000
ENDCHAR
STARTCHAR 47
ENCODING 71
SWIDTH 480 0
DWIDTH 9 0
BBX 9 18 0 -2
BITMAP
0000
1e00
3300
6180
6000
c000
c000
c000
cf80
c180
c180
c180
6180
6180
3380
1e80
0000
0000
ENDCHAR
STARTCHAR 48
ENCODING 72
SWIDTH 480 0
DWIDTH 9 0
BBX 9 18 0 -2
BITMAP
0000
c180
c180
c180
c180
c180
c180
c180
ff80
c180
c180
c180
c180
c180
c180
c180
0000
0000
ENDCHAR
STARTCHAR 49
ENCODING 73
SWIDTH 480 0
DWIDTH 9 0
BBX 9 18 0 -2
BITMAP
0000
3f00
0c00
0c00
0c00
0c00
0c00
0c00
0c00
0c00
0c00
0c00
0c00
0c00
0c00
3f00
0000
0000
ENDCHAR
STARTCHAR 4a
ENCODING 74
SWIDTH 480 0
DWIDTH 9 0
BBX 9 18 0 -2
BITMAP
0000
0180
0180
0180
0180
0180
0180
0180
0180
0180
0180
0180
6180
6180
3300
1e00
0000
0000
ENDCHAR
STARTCHAR 4b
ENCODING 75
SWIDTH 480 0
DWIDTH 9 0
BBX 9 18 0 -2
BITMAP
0000
c180
c300
c600
c600
cc00
d800
d800
ec00
cc00
c600
c600
c300
c300
c180
c180
0000
0000
ENDCHAR
STARTCHAR 4c
ENCODING 76
SWIDTH 480 0
DWIDTH 9 0
BBX 9 18 0 -2
BITMAP
0000
c000
c000
c000
c000
c000
c000
c000
c000
c000
c000
c000
c000
c000
c000
ff80
0000
0000
ENDCHAR
STARTCHAR 4d
ENCODING 77
SWIDTH 480 0
DWIDTH 9 0
BBX 9 18 0 -2
BITMAP
0000
c180
c180
c180
e380
e380
e380
e380
d680
d680
d680
d680
dd80
dd80
dd80
dd80
0000
0000
ENDCHAR
STARTCHAR 4e
ENCODING 78
SWIDTH 480 0
DWIDTH 9 0
BBX 9 18 0 -2
BITMAP
0000
c180
e180
e180
d180
d180
d980
d980
cd80
cd80
cd80
c680
c680
c380
c380
c180
0000
0000
ENDCHAR
STARTCHAR 4f
ENCODING 79
SWIDTH 480 0
DWIDTH 9 0
BBX 9 18 0 -2
BITMAP
0000
3e00
6300
c180
c180
c180
c180
c180
c180
c180
c180
c180
c180
c180
6300
3e00
0000
0000
ENDCHAR
STARTCHAR 50
ENCODING 80
SWIDTH 480 0
DWIDTH 9 0
BBX 9 18 0 -2
BITMAP
0000
fe00
c300
c180
c180
c180
c180
c300
fe00
c000
c000
c000
c000
c000
c000
c000
0000
0000
ENDCHAR
STARTCHAR 51
ENCODING 81
SWIDTH 480 0
DWIDTH 9 0
BBX 9 18 0 -2
BITMAP
0000
3e00
6300
6300
c180
c180
c180
c180
c180
c180
c180
de80
e380
6300
6300
3e00
0600
0380
ENDCHAR
STARTCHAR 52
ENCODING 82
SWIDTH 480 0
DWIDTH 9 0
BBX 9 18 0 -2
BITMAP
0000
fe00
c300
c180
c180
c180
c180
c300
fe00
c600
c600
c300
c300
c300
c180
c180
0000
0000
ENDCHAR
STARTCHAR 53
ENCODING 83
SWIDTH 480 0
DWIDTH 9 0
BBX 9 18 0 -2
BITMAP
0000
3e00
6300
c180
c180
c180
c000
7000
1e00
0300
0180
c180
c180
c180
6300
3e00
0000
0000
ENDCHAR
STARTCHAR 54
ENCODING 84
SWIDTH 480 0
DWIDTH 9 0
BBX 9 18 0 -2
BITMAP
0000
ffc0
0c00
0c00
0c00
0c00
0c00
0c00
0c00
0c00
0c00
0c00
0c00
0c00
0c00
0c00
0000
0000
ENDCHAR
STARTCHAR 55
ENCODING 85
SWIDTH 480 0
DWIDTH 9 0
BBX 9 18 0 -2
BITMAP
0000
c180
c180
c180
c180
c180
c180
c180
c180
c180
c180
c180
c180
6300
6300
3e00
0000
0000
ENDCHAR
STARTCHAR 56
ENCODING 86
SWIDTH 480 0
DWIDTH 9 0
BBX 9 18 0 -2
BITMAP
0000
c180
c180
c180
c180
6300
6300
6300
6300
3600
3600
3600
3600
1c00
1c00
1c00
0000
0000
ENDCHAR
STARTCHAR 57
ENCODING 87
SWIDTH 480 0
DWIDTH 9 0
BBX 9 18 0 -2
BITMAP
0000
ccc0
ccc0
ccc0
ccc0
ccc0
6a80
6a80
6a80
6a80
6a80
3300
3300
3300
3300
3300
0000
0000
ENDCHAR
STARTCHAR 58
ENCODING 88
SWIDTH 480 0
DWIDTH 9 0
BBX 9 18 0 -2
BITMAP
0000
c180
c180
6300
6300
3600
3600
1c00
1c00
1c00
3600
3600
6300
6300
c180
c180
0000
0000
ENDCHAR
STARTCHAR 59
ENCODING 89
SWIDTH 480 0
DWIDTH 9 0
BBX 9 18 0 -2
BITMAP
0000
c300
c300
c300
6600
6600
6600
3400
3400
3400
1800
1800
1800
1800
1800
1800
0000
0000
ENDCHAR
STARTCHAR 5a
ENCODING 90
SWIDTH 480 0
DWIDTH 9 0
BBX 9 18 0 -2
BITMAP
0000
ff80
0180
0300
0600
0600
0c00
0c00
1800
1800
3000
3000
6000
6000
c000
ff80
0000
0000
ENDCHAR
STARTCHAR 5b
ENCODING 91
SWIDTH 480 0
DWIDTH 9 0
BBX 9 18 0 -2
BITMAP
1f80
1800
1800
1800
1800
1800
1800
1800
1800
1800
1800
1800
1800
1800
1800
1800
1f80
0000
ENDCHAR
STARTCHAR 5c
ENCODING 92
SWIDTH 480 0
DWIDTH 9 0
BBX 9 18 0 -2
BITMAP
6180
6180
6180
3300
3300
3300
1a00
1a00
7f80
0c00
7f80
0c00
0c00
0c00
0c00
0c00
0000
0000
ENDCHAR
STARTCHAR 5d
ENCODING 93
SWIDTH 480 0
DWIDTH 9 0
BBX 9 18 0 -2
BITMAP
7e00
0600
0600
0600
0600
0600
0600
0600
0600
0600
0600
0600
0600
0600
0600
0600
7e00
0000
ENDCHAR
STARTCHAR 5e
ENCODING 94
SWIDTH 480 0
DWIDTH 9 0
BBX 9 18 0 -2
BITMAP
0000
1c00
3600
6300
c180
0000
0000
0000
0000
0000
0000
0000
0000
0000
0000
0000
0000
0000
ENDCHAR
STARTCHAR 5f
ENCODING 95
SWIDTH 480 0
DWIDTH 9 0
BBX 9 18 0 -2
BITMAP
0000
0000
0000
0000
0000
0000
0000
0000
0000
0000
0000
0000
0000
0000
0000
ffc0
0000
0000
ENDCHAR
STARTCHAR 60
ENCODING 96
SWIDTH 480 0
DWIDTH 9 0
BBX 9 18 0 -2
BITMAP
3800
3800
3000
3000
1800
0000
0000
0000
0000
0000
0000
0000
0000
0000
0000
0000
0000
0000
ENDCHAR
STARTCHAR 61
ENCODING 97
SWIDTH 480 0
DWIDTH 9 0
BBX 9 18 0 -2
BITMAP
0000
0000
0000
0000
0000
0000
0000
3f00
6180
0180
0180
3f80
6180
6180
6380
3e80
0000
0000
ENDCHAR
STARTCHAR 62
ENCODING 98
SWIDTH 480 0
DWIDTH 9 0
BBX 9 18 0 -2
BITMAP
0000
c000
c000
c000
c000
c000
c000
de00
e300
c180
c180
c180
c180
c180
e300
de00
0000
0000
ENDCHAR
STARTCHAR 63
ENCODING 99
SWIDTH 480 0
DWIDTH 9 0
BBX 9 18 0 -2
BITMAP
0000
0000
0000
0000
0000
0000
0000
3e00
6300
c180
c000
c000
c000
c180
6300
3e00
0000
0000
ENDCHAR
STARTCHAR 64
ENCODING 100
SWIDTH 480 0
DWIDTH 9 0
BBX 9 18 0 -2
BITMAP
0000
0180
0180
0180
0180
0180
0180
3e80
6380
c180
c180
c180
c180
c180
6380
3e80
0000
0000
ENDCHAR
STARTCHAR 65
ENCODING 101
SWIDTH 480 0
DWIDTH 9 0
BBX 9 18 0 -2
BITMAP
0000
0000
0000
0000
0000
0000
0000
3e00
6300
c180
c180
ff80
c000
c180
6300
3e00
0000
0000
ENDCHAR
STARTCHAR 66
ENCODING 102
SWIDTH 480 0
DWIDTH 9 0
BBX 9 18 0 -2
BITMAP
0000
0000
0700
0d80
1800
1800
1800
7f00
1800
1800
1800
1800
1800
1800
1800
1800
0000
0000
ENDCHAR
STARTCHAR 67
ENCODING 103
SWIDTH 480 0
DWIDTH 9 0
BBX 9 18 0 -2
BITMAP
0000
0000
0000
0000
0000
0000
0000
1e80
3300
3300
3300
1e00
3000
3e00
6300
6180
6180
3f00
ENDCHAR
STARTCHAR 68
ENCODING 104
SWIDTH 480 0
DWIDTH 9 0
BBX 9 18 0 -2
BITMAP
0000
6000
6000
6000
6000
6000
6000
6e00
7300
6180
6180
6180
6180
6180
6180
6180
0000
0000
ENDCHAR
STARTCHAR 69
ENCODING 105
SWIDTH 480 0
DWIDTH 9 0
BBX 9 18 0 -2
BITMAP
0000
0000
0000
0c00
0c00
0000
0000
1c00
0c00
0c00
0c00
0c00
0c00
0c00
0c00
0c00
0000
0000
ENDCHAR
STARTCHAR 6a
ENCODING 106
SWIDTH 480 0
DWIDTH 9 0
BBX 9 18 0 -2
BITMAP
0000
0000
0000
0300
0300
0000
0000
0300
0300
0300
0300
0300
0300
0300
0300
0300
6600
3c00
ENDCHAR
STARTCHAR 6b
ENCODING 107
SWIDTH 480 0
DWIDTH 9 0
BBX 9 18 0 -2
BITMAP
0000
6000
6000
6000
6000
6000
6000
6300
6600
6c00
6800
7800
6c00
6600
6300
6180
0000
0000
ENDCHAR
STARTCHAR 6c
ENCODING 108
SWIDTH 480 0
DWIDTH 9 0
BBX 9 18 0 -2
BITMAP
0000
3c00
0c00
0c00
0c00
0c00
0c00
0c00
0c00
0c00
0c00
0c00
0c00
0c00
0c00
0c00
0000
0000
ENDCHAR
STARTCHAR 6d
ENCODING 109
SWIDTH 480 0
DWIDTH 9 0
BBX 9 18 0 -2
BITMAP
0000
0000
0000
0000
0000
0000
0000
d700
ed80
d980
d980
d980
d980
d980
d980
d980
0000
0000
ENDCHAR
STARTCHAR 6e
ENCODING 110
SWIDTH 480 0
DWIDTH 9 0
BBX 9 18 0 -2
BITMAP
0000
0000
0000
0000
0000
0000
0000
6e00
6b00
7180
6180
6180
6180
6180
6180
6180
0000
0000
ENDCHAR
STARTCHAR 6f
ENCODING 111
SWIDTH 480 0
DWIDTH 9 0
BBX 9 18 0 -2
BITMAP
0000
0000
0000
0000
0000
0000
0000
3e00
6300
c180
c180
c180
c180
c180
6300
3e00
0000
0000
ENDCHAR
STARTCHAR 70
ENCODING 112
SWIDTH 480 0
DWIDTH 9 0
BBX 9 18 0 -2
BITMAP
0000
0000
0000
0000
0000
0000
0000
de00
e300
c180
c180
c180
c180
e300
de00
c000
c000
c000
ENDCHAR
STARTCHAR 71
ENCODING 113
SWIDTH 480 0
DWIDTH 9 0
BBX 9 18 0 -2
BITMAP
0000
0000
0000
0000
0000
0000
0000
3e80
6380
c180
c180
c180
c180
6380
3e80
0180
0180
0180
ENDCHAR
STARTCHAR 72
ENCODING 114
SWIDTH 480 0
DWIDTH 9 0
BBX 9 18 0 -2
BITMAP
0000
0000
0000
0000
0000
0000
0000
6e00
6b00
7000
6000
6000
6000
6000
6000
6000
0000
0000
ENDCHAR
STARTCHAR 73
ENCODING 115
SWIDTH 480 0
DWIDTH 9 0
BBX 9 18 0 -2
BITMAP
0000
0000
0000
0000
0000
0000
0000
3f00
6180
6180
6000
3f00
0180
6180
6180
3f00
0000
0000
ENDCHAR
STARTCHAR 74
ENCODING 116
SWIDTH 480 0
DWIDTH 9 0
BBX 9 18 0 -2
BITMAP
0000
0000
0000
0000
1800
1800
1800
7f00
1800
1800
1800
1800
1800
1800
1980
0f00
0000
0000
ENDCHAR
STARTCHAR 75
ENCODING 117
SWIDTH 480 0
DWIDTH 9 0
BBX 9 18 0 -2
BITMAP
0000
0000
0000
0000
0000
0000
0000
6180
6180
6180
6180
6180
6180
6180
3380
1e80
0000
0000
ENDCHAR
STARTCHAR 76
ENCODING 118
SWIDTH 480 0
DWIDTH 9 0
BBX 9 18 0 -2
BITMAP
0000
0000
0000
0000
0000
0000
0000
6180
6180
6180
3300
3300
1a00
1a00
0c00
0c00
0000
0000
ENDCHAR
STARTCHAR 77
ENCODING 119
SWIDTH 480 0
DWIDTH 9 0
BBX 9 18 0 -2
BITMAP
0000
0000
0000
0000
0000
0000
0000
6d80
6d80
6d80
6a80
6a80
6a80
3300
3300
3300
0000
0000
ENDCHAR
STARTCHAR 78
ENCODING 120
SWIDTH 480 0
DWIDTH 9 0
BBX 9 18 0 -2
BITMAP
0000
0000
0000
0000
0000
0000
0000
6180
3300
3300
1a00
0c00
1a00
3300
3300
6180
0000
0000
ENDCHAR
STARTCHAR 79
ENCODING 121
SWIDTH 480 0
DWIDTH 9 0
BBX 9 18 0 -2
BITMAP
0000
0000
0000
0000
0000
0000
0000
c180
6300
6300
3600
3600
1c00
0c00
1800
1800
3000
e000
ENDCHAR
STARTCHAR 7a
ENCODING 122
SWIDTH 480 0
DWIDTH 9 0
BBX 9 18 0 -2
BITMAP
0000
0000
0000
0000
0000
0000
0000
ff80
0300
0600
0c00
1800
3000
6000
c000
ff80
0000
0000
ENDCHAR
STARTCHAR 7b
ENCODING 123
SWIDTH 480 0
DWIDTH 9 0
BBX 9 18 0 -2
BITMAP
0300
0600
0c00
0c00
0c00
0c00
0c00
0c00
3800
0c00
0c00
0c00
0c00
0c00
0c00
0c00
0600
0300
ENDCHAR
STARTCHAR 7c
ENCODING 124
SWIDTH 480 0
DWIDTH 9 0
BBX 9 18 0 -2
BITMAP
0c00
0c00
0c00
0c00
0c00
0c00
0c00
0c00
0c00
0c00
0c00
0c00
0c00
0c00
0c00
0c00
0c00
0c00
ENDCHAR
STARTCHAR 7d
ENCODING 125
SWIDTH 480 0
DWIDTH 9 0
BBX 9 18 0 -2
BITMAP
6000
3000
1800
1800
1800
1800
1800
1800
0e00
1800
1800
1800
1800
1800
1800
1800
3000
6000
ENDCHAR
STARTCHAR 7e
ENCODING 126
SWIDTH 480 0
DWIDTH 9 0
BBX 9 18 0 -2
BITMAP
ffc0
0000
0000
0000
0000
0000
0000
0000
0000
0000
0000
0000
0000
0000
0000
0000
0000
0000
ENDCHAR
STARTCHAR   a1
ENCODING 161
SWIDTH 480 0
DWIDTH 9 0
BBX 9 18 0 -2
BITMAP
0000
0000
0000
0000
0000
0000
0000
0000
0000
0000
0000
0000
0000
3800
6c00
6c00
3800
0000
ENDCHAR
STARTCHAR   a2
ENCODING 162
SWIDTH 480 0
DWIDTH 9 0
BBX 9 18 0 -2
BITMAP
0000
3f80
3000
3000
3000
3000
3000
3000
3000
3000
3000
0000
0000
0000
0000
0000
0000
0000
ENDCHAR
STARTCHAR   a3
ENCODING 163
SWIDTH 480 0
DWIDTH 9 0
BBX 9 18 0 -2
BITMAP
0000
0000
0000
0000
0000
0000
0000
0c00
0c00
0c00
0c00
0c00
0c00
0c00
0c00
0c00
fc00
0000
ENDCHAR
STARTCHAR   a4
ENCODING 164
SWIDTH 480 0
DWIDTH 9 0
BBX 9 18 0 -2
BITMAP
0000
0000
0000
0000
0000
0000
0000
0000
0000
0000
0000
0000
0000
0000
3000
1800
1800
0000
ENDCHAR
STARTCHAR   a5
ENCODING 165
SWIDTH 480 0
DWIDTH 9 0
BBX 9 18 0 -2
BITMAP
0000
0000
0000
0000
0000
0000
0000
0000
1c00
1c00
0000
0000
0000
0000
0000
0000
0000
0000
ENDCHAR
STARTCHAR   a6
ENCODING 166
SWIDTH 480 0
DWIDTH 9 0
BBX 9 18 0 -2
BITMAP
0000
0000
7f80
0180
0180
0180
0180
7f80
0180
0300
0300
0600
0c00
1800
3000
6000
0000
0000
ENDCHAR
STARTCHAR   a7
ENCODING 167
SWIDTH 480 0
DWIDTH 9 0
BBX 9 18 0 -2
BITMAP
0000
0000
0000
0000
0000
0000
0000
0000
7f80
0180
0d00
0e00
0c00
0c00
1800
1800
3000
0000
ENDCHAR
STARTCHAR   a8
ENCODING 168
SWIDTH 480 0
DWIDTH 9 0
BBX 9 18 0 -2
BITMAP
0000
0000
0000
0000
0000
0000
0000
0700
0600
0c00
1c00
3400
6c00
0c00
0c00
0c00
0c00
0000
ENDCHAR
STARTCHAR   a9
ENCODING 169
SWIDTH 480 0
DWIDTH 9 0
BBX 9 18 0 -2
BITMAP
0000
0000
0000
0000
0000
0000
0000
0c00
0c00
7f80
6180
6180
6180
0300
0600
0c00
1800
0000
ENDCHAR
STARTCHAR   aa
ENCODING 170
SWIDTH 480 0
DWIDTH 9 0
BBX 9 18 0 -2
BITMAP
0000
0000
0000
0000
0000
0000
0000
0000
0000
3f00
0c00
0c00
0c00
0c00
0c00
7f80
0000
0000
ENDCHAR
STARTCHAR   ab
ENCODING 171
SWIDTH 480 0
DWIDTH 9 0
BBX 9 18 0 -2
BITMAP
0000
0000
0000
0000
0000
0000
0000
0c00
0c00
ff80
0c00
0c00
1c00
3400
6c00
cc00
1c00
0000
ENDCHAR
STARTCHAR   ac
ENCODING 172
SWIDTH 480 0
DWIDTH 9 0
BBX 9 18 0 -2
BITMAP
0000
0000
0000
0000
0000
0000
0000
0000
0000
3000
3780
3d80
6b00
0c00
0c00
0600
0000
0000
ENDCHAR
STARTCHAR   ad
ENCODING 173
SWIDTH 480 0
DWIDTH 9 0
BBX 9 18 0 -2
BITMAP
0000
0000
0000
0000
0000
0000
0000
0000
0000
7e00
0600
0600
0600
0600
ff80
0000
0000
0000
ENDCHAR
STARTCHAR   ae
ENCODING 174
SWIDTH 480 0
DWIDTH 9 0
BBX 9 18 0 -2
BITMAP
0000
0000
0000
0000
0000
0000
0000
0000
7f00
0300
0300
7f00
0300
0300
0300
7f00
0000
0000
ENDCHAR
STARTCHAR   af
ENCODING 175
SWIDTH 480 0
DWIDTH 9 0
BBX 9 18 0 -2
BITMAP
0000
0000
0000
0000
0000
0000
0000
1980
6d80
3580
3180
0300
0300
0600
0c00
1800
0000
0000
ENDCHAR
STARTCHAR   b0
ENCODING 176
SWIDTH 480 0
DWIDTH 9 0
BBX 9 18 0 -2
BITMAP
0000
0000
0000
0000
0000
0000
0000
3f00
0000
0000
0000
0000
0000
0000
0000
0000
0000
0000
ENDCHAR
STARTCHAR   b1
ENCODING 177
SWIDTH 480 0
DWIDTH 9 0
BBX 9 18 0 -2
BITMAP
0000
0000
ff80
0180
0180
0180
1980
1b00
1b00
1a00
1800
3000
3000
3000
6000
c000
0000
0000
ENDCHAR
STARTCHAR   b2
ENCODING 178
SWIDTH 480 0
DWIDTH 9 0
BBX 9 18 0 -2
BITMAP
0000
0180
0180
0300
0300
0600
0c00
1c00
3400
6c00
cc00
0c00
0c00
0c00
0c00
0c00
0000
0000
ENDCHAR
STARTCHAR   b3
ENCODING 179
SWIDTH 480 0
DWIDTH 9 0
BBX 9 18 0 -2
BITMAP
0000
1800
1800
1800
ff80
c180
c180
c180
c180
0180
0300
0300
0600
0c00
1800
3000
0000
0000
ENDCHAR
STARTCHAR   b4
ENCODING 180
SWIDTH 480 0
DWIDTH 9 0
BBX 9 18 0 -2
BITMAP
0000
0000
0000
7f80
0c00
0c00
0c00
0c00
0c00
0c00
0c00
0c00
0c00
0c00
ffc0
0000
0000
0000
ENDCHAR
STARTCHAR   b5
ENCODING 181
SWIDTH 480 0
DWIDTH 9 0
BBX 9 18 0 -2
BITMAP
0000
0000
0c00
0c00
ff80
0c00
0c00
1c00
1c00
3400
3400
6c00
cc00
cc00
0c00
0c00
0000
0000
ENDCHAR
STARTCHAR   b6
ENCODING 182
SWIDTH 480 0
DWIDTH 9 0
BBX 9 18 0 -2
BITMAP
0000
1800
1800
1800
ff80
1980
1980
1980
1980
1980
3180
3180
3180
3180
6180
c700
0000
0000
ENDCHAR
STARTCHAR   b7
ENCODING 183
SWIDTH 480 0
DWIDTH 9 0
BBX 9 18 0 -2
BITMAP
0000
0000
3000
3000
3300
fe00
1800
1800
1800
0f80
fc00
0c00
0c00
0600
0600
0600
0000
0000
ENDCHAR
STARTCHAR   b8
ENCODING 184
SWIDTH 480 0
DWIDTH 9 0
BBX 9 18 0 -2
BITMAP
0000
0000
3000
3f80
3180
3180
3180
6180
6300
c300
0600
0600
0c00
1800
3000
6000
0000
0000
ENDCHAR
STARTCHAR   b9
ENCODING 185
SWIDTH 480 0
DWIDTH 9 0
BBX 9 18 0 -2
BITMAP
0000
0000
6000
6000
7f80
6600
6600
6600
c600
0600
0600
0c00
0c00
1800
3000
6000
0000
0000
ENDCHAR
STARTCHAR   ba
ENCODING 186
SWIDTH 480 0
DWIDTH 9 0
BBX 9 18 0 -2
BITMAP
0000
0000
0000
ff80
0180
0180
0180
0180
0180
0180
0180
0180
0180
ff80
0180
0000
0000
0000
ENDCHAR
STARTCHAR   bb
ENCODING 187
SWIDTH 480 0
DWIDTH 9 0
BBX 9 18 0 -2
BITMAP
0000
0000
3300
3300
3300
3300
ff80
3300
3300
3300
3300
0300
0600
0c00
1800
3000
0000
0000
ENDCHAR
STARTCHAR   bc
ENCODING 188
SWIDTH 480 0
DWIDTH 9 0
BBX 9 18 0 -2
BITMAP
0000
0000
7000
1800
0000
0000
0000
e180
3180
0300
0300
0600
0c00
1800
3000
e000
0000
0000
ENDCHAR
STARTCHAR   bd
ENCODING 189
SWIDTH 480 0
DWIDTH 9 0
BBX 9 18 0 -2
BITMAP
0000
0000
0000
ff80
0180
0180
0300
0300
0600
0600
0e00
1b00
1b00
3180
6180
c0c0
0000
0000
ENDCHAR
STARTCHAR   be
ENCODING 190
SWIDTH 480 0
DWIDTH 9 0
BBX 9 18 0 -2
BITMAP
0000
0000
6000
6000
6000
6000
6f80
7980
e300
6600
6000
6000
6000
6000
6000
3f80
0000
0000
ENDCHAR
STARTCHAR   bf
ENCODING 191
SWIDTH 480 0
DWIDTH 9 0
BBX 9 18 0 -2
BITMAP
0000
0000
0180
c180
c180
6180
6180
6180
0300
0300
0600
0600
0c00
1800
3000
6000
0000
0000
ENDCHAR
STARTCHAR   c0
ENCODING 192
SWIDTH 480 0
DWIDTH 9 0
BBX 9 18 0 -2
BITMAP
0000
3000
3000
3f80
3180
3180
6180
7180
6b00
cd00
0600
0600
0c00
1800
3000
6000
0000
0000
ENDCHAR
STARTCHAR   c1
ENCODING 193
SWIDTH 480 0
DWIDTH 9 0
BBX 9 18 0 -2
BITMAP
0000
0180
0700
7c00
0c00
0c00
0c00
ffc0
0c00
0c00
0c00
0c00
0c00
1800
3000
6000
0000
0000
ENDCHAR
STARTCHAR   c2
ENCODING 194
SWIDTH 480 0
DWIDTH 9 0
BBX 9 18 0 -2
BITMAP
0000
0000
3000
3180
d180
d980
d980
6180
6300
0300
0600
0600
0c00
1800
3000
6000
0000
0000
ENDCHAR
STARTCHAR   c3
ENCODING 195
SWIDTH 480 0
DWIDTH 9 0
BBX 9 18 0 -2
BITMAP
0000
0000
7f00
0000
0000
0000
0000
ff80
0c00
0c00
0c00
0c00
0c00
1800
3000
6000
0000
0000
ENDCHAR
STARTCHAR   c4
ENCODING 196
SWIDTH 480 0
DWIDTH 9 0
BBX 9 18 0 -2
BITMAP
0000
3000
3000
3000
3000
3800
3c00
3600
3300
3180
3180
3000
3000
3000
3000
3000
0000
0000
ENDCHAR
STARTCHAR   c5
ENCODING 197
SWIDTH 480 0
DWIDTH 9 0
BBX 9 18 0 -2
BITMAP
0000
0000
0c00
0c00
0c00
ff80
0c00
0c00
0c00
0c00
0c00
0c00
1800
1800
3000
6000
0000
0000
ENDCHAR
STARTCHAR   c6
ENCODING 198
SWIDTH 480 0
DWIDTH 9 0
BBX 9 18 0 -2
BITMAP
0000
0000
0000
7f00
0000
0000
0000
0000
0000
0000
0000
0000
0000
ff80
0000
0000
0000
0000
ENDCHAR
STARTCHAR   c7
ENCODING 199
SWIDTH 480 0
DWIDTH 9 0
BBX 9 18 0 -2
BITMAP
0000
0000
7f80
0180
0180
0180
3300
1b00
0e00
0600
0d00
1980
1800
3000
6000
c000
0000
0000
ENDCHAR
STARTCHAR   c8
ENCODING 200
SWIDTH 480 0
DWIDTH 9 0
BBX 9 18 0 -2
BITMAP
0000
1800
1800
1800
ff00
0300
0300
0600
0c00
1a00
3b00
6980
d800
1800
1800
1800
0000
0000
ENDCHAR
STARTCHAR   c9
ENCODING 201
SWIDTH 480 0
DWIDTH 9 0
BBX 9 18 0 -2
BITMAP
0000
0180
0180
0180
0300
0300
0300
0300
0600
0600
0c00
1800
3000
6000
c000
0000
0000
0000
ENDCHAR
STARTCHAR   ca
ENCODING 202
SWIDTH 480 0
DWIDTH 9 0
BBX 9 18 0 -2
BITMAP
0000
0000
0000
0e00
0600
3300
3300
3300
3180
3180
3180
3180
6180
6180
6180
c180
0000
0000
ENDCHAR
STARTCHAR   cb
ENCODING 203
SWIDTH 480 0
DWIDTH 9 0
BBX 9 18 0 -2
BITMAP
0000
6000
6000
6000
6000
6180
6f00
7800
6000
6000
6000
6000
6000
6000
6000
3f80
0000
0000
ENDCHAR
STARTCHAR   cc
ENCODING 204
SWIDTH 480 0
DWIDTH 9 0
BBX 9 18 0 -2
BITMAP
0000
0000
ff80
0180
0180
0180
0180
0180
0300
0300
0600
0600
0c00
1800
3000
6000
0000
0000
ENDCHAR
STARTCHAR   cd
ENCODING 205
SWIDTH 480 0
DWIDTH 9 0
BBX 9 18 0 -2
BITMAP
0000
0000
0000
3000
3000
3800
6800
6c00
c600
c600
0300
0180
00c0
0000
0000
0000
0000
0000
ENDCHAR
STARTCHAR   ce
ENCODING 206
SWIDTH 480 0
DWIDTH 9 0
BBX 9 18 0 -2
BITMAP
0000
1800
1800
1800
1800
ff80
1800
1800
6a00
6b00
6b00
6b00
d980
d980
1800
3800
0000
0000
ENDCHAR
STARTCHAR   cf
ENCODING 207
SWIDTH 480 0
DWIDTH 9 0
BBX 9 18 0 -2
BITMAP
0000
0000
0000
ff80
0180
0180
0180
0300
0300
6600
3400
1c00
0c00
0600
0300
0000
0000
0000
ENDCHAR
STARTCHAR   d0
ENCODING 208
SWIDTH 480 0
DWIDTH 9 0
BBX 9 18 0 -2
BITMAP
0000
0000
3800
0e00
0300
0000
0000
3800
0e00
0300
0000
0000
7800
0e00
0300
0180
0000
0000
ENDCHAR
STARTCHAR   d1
ENCODING 209
SWIDTH 480 0
DWIDTH 9 0
BBX 9 18 0 -2
BITMAP
0000
0000
1800
1800
1800
1800
1800
1800
3000
3300
3300
3180
6780
dd80
f180
0000
0000
0000
ENDCHAR
STARTCHAR   d2
ENCODING 210
SWIDTH 480 0
DWIDTH 9 0
BBX 9 18 0 -2
BITMAP
0000
0300
0300
0300
0300
0300
7300
1a00
0e00
0700
0d80
1800
1800
3000
6000
c000
0000
0000
ENDCHAR
STARTCHAR   d3
ENCODING 211
SWIDTH 480 0
DWIDTH 9 0
BBX 9 18 0 -2
BITMAP
0000
0000
0000
ff80
3000
3000
3000
3000
ff80
3000
3000
3000
3000
3000
1800
0f80
0000
0000
ENDCHAR
STARTCHAR   d4
ENCODING 212
SWIDTH 480 0
DWIDTH 9 0
BBX 9 18 0 -2
BITMAP
0000
3000
3000
3000
37c0
1cc0
38c0
e980
1980
0d00
0c00
0c00
0600
0600
0300
0300
0000
0000
ENDCHAR
STARTCHAR   d5
ENCODING 213
SWIDTH 480 0
DWIDTH 9 0
BBX 9 18 0 -2
BITMAP
0000
0000
0000
0000
0000
7f00
0300
0300
0300
0300
0300
0300
0300
0300
ffc0
0000
0000
0000
ENDCHAR
STARTCHAR   d6
ENCODING 214
SWIDTH 480 0
DWIDTH 9 0
BBX 9 18 0 -2
BITMAP
0000
0000
ff80
0180
0180
0180
0180
0180
7f80
0180
0180
0180
0180
0180
0180
ff80
0000
0000
ENDCHAR
STARTCHAR   d7
ENCODING 215
SWIDTH 480 0
DWIDTH 9 0
BBX 9 18 0 -2
BITMAP
0000
0000
7f00
0000
0000
0000
0000
ff80
0180
0180
0300
0300
0600
0c00
1800
7000
0000
0000
ENDCHAR
STARTCHAR   d8
ENCODING 216
SWIDTH 480 0
DWIDTH 9 0
BBX 9 18 0 -2
BITMAP
0000
0000
6300
6300
6300
6300
6300
6300
6300
6300
0300
0600
0600
0c00
1800
3000
0000
0000
ENDCHAR
STARTCHAR   d9
ENCODING 217
SWIDTH 480 0
DWIDTH 9 0
BBX 9 18 0 -2
BITMAP
0000
0000
0000
0c00
3400
3400
3400
3400
3400
34c0
34c0
6d80
6d80
6d00
6e00
cc00
0000
0000
ENDCHAR
STARTCHAR   da
ENCODING 218
SWIDTH 480 0
DWIDTH 9 0
BBX 9 18 0 -2
BITMAP
0000
0000
6000
6000
6000
6000
6000
6000
6000
6180
6300
6300
6600
6c00
6800
7000
0000
0000
ENDCHAR
STARTCHAR   db
ENCODING 219
SWIDTH 480 0
DWIDTH 9 0
BBX 9 18 0 -2
BITMAP
0000
0000
0000
ff80
c180
c180
c180
c180
c180
c180
c180
c180
c180
ff80
c180
0000
0000
0000
ENDCHAR
STARTCHAR   dc
ENCODING 220
SWIDTH 480 0
DWIDTH 9 0
BBX 9 18 0 -2
BITMAP
0000
0000
0000
ff80
c180
c180
c180
c180
c180
0180
0300
0300
0600
0c00
1800
3000
0000
0000
ENDCHAR
STARTCHAR   dd
ENCODING 221
SWIDTH 480 0
DWIDTH 9 0
BBX 9 18 0 -2
BITMAP
0000
0000
0000
0000
e000
3000
1980
0180
0180
0300
0300
0600
0c00
1800
3000
e000
0000
0000
ENDCHAR
STARTCHAR   de
ENCODING 222
SWIDTH 480 0
DWIDTH 9 0
BBX 9 18 0 -2
BITMAP
0000
6800
3400
3400
0000
0000
0000
0000
0000
0000
0000
0000
0000
0000
0000
0000
0000
0000
ENDCHAR
STARTCHAR   df
ENCODING 223
SWIDTH 480 0
DWIDTH 9 0
BBX 9 18 0 -2
BITMAP
0000
3800
6c00
6c00
3800
0000
0000
0000
0000
0000
0000
0000
0000
0000
0000
0000
0000
0000
ENDCHAR
STARTCHAR   e0
ENCODING 224
SWIDTH 480 0
DWIDTH 9 0
BBX 9 18 0 -2
BITMAP
0000
0000
0000
0000
0000
0000
0000
0000
0000
0000
0000
0000
0000
0000
0000
0000
0000
0000
ENDCHAR
STARTCHAR   e1
ENCODING 225
SWIDTH 480 0
DWIDTH 9 0
BBX 9 18 0 -2
BITMAP
0000
0000
0000
0000
0000
0000
0000
0000
0000
0000
0000
0000
0000
0000
0000
0000
0000
0000
ENDCHAR
STARTCHAR   e2
ENCODING 226
SWIDTH 480 0
DWIDTH 9 0
BBX 9 18 0 -2
BITMAP
0000
0000
0000
0000
0000
0000
0000
0000
0000
0000
0000
0000
0000
0000
0000
0000
0000
0000
ENDCHAR
STARTCHAR   e3
ENCODING 227
SWIDTH 480 0
DWIDTH 9 0
BBX 9 18 0 -2
BITMAP
0000
0000
0000
0000
0000
0000
0000
0000
0000
0000
0000
0000
0000
0000
0000
0000
0000
0000
ENDCHAR
STARTCHAR   e4
ENCODING 228
SWIDTH 480 0
DWIDTH 9 0
BBX 9 18 0 -2
BITMAP
0000
0000
0000
0000
0000
0000
0000
0000
0000
0000
0000
0000
0000
0000
0000
0000
0000
0000
ENDCHAR
STARTCHAR   e5
ENCODING 229
SWIDTH 480 0
DWIDTH 9 0
BBX 9 18 0 -2
BITMAP
0000
0000
0000
0000
0000
0000
0000
0000
0000
0000
0000
0000
0000
0000
0000
0000
0000
0000
ENDCHAR
STARTCHAR   e6
ENCODING 230
SWIDTH 480 0
DWIDTH 9 0
BBX 9 18 0 -2
BITMAP
0000
0000
0000
0000
0000
0000
0000
0000
0000
0000
0000
0000
0000
0000
0000
0000
0000
0000
ENDCHAR
STARTCHAR   e7
ENCODING 231
SWIDTH 480 0
DWIDTH 9 0
BBX 9 18 0 -2
BITMAP
0000
0000
0000
0000
0000
0000
0000
0000
0000
0000
0000
0000
0000
0000
0000
0000
0000
0000
ENDCHAR
STARTCHAR   e8
ENCODING 232
SWIDTH 480 0
DWIDTH 9 0
BBX 9 18 0 -2
BITMAP
0000
0000
0000
0000
0000
0000
0000
0000
0000
0000
0000
0000
0000
0000
0000
0000
0000
0000
ENDCHAR
STARTCHAR   e9
ENCODING 233
SWIDTH 480 0
DWIDTH 9 0
BBX 9 18 0 -2
BITMAP
0000
0000
0000
0000
0000
0000
0000
0000
0000
0000
0000
0000
0000
0000
0000
0000
0000
0000
ENDCHAR
STARTCHAR   ea
ENCODING 234
SWIDTH 480 0
DWIDTH 9 0
BBX 9 18 0 -2
BITMAP
0000
0000
0000
0000
0000
0000
0000
0000
0000
0000
0000
0000
0000
0000
0000
0000
0000
0000
ENDCHAR
STARTCHAR   eb
ENCODING 235
SWIDTH 480 0
DWIDTH 9 0
BBX 9 18 0 -2
BITMAP
0000
0000
0000
0000
0000
0000
0000
0000
0000
0000
0000
0000
0000
0000
0000
0000
0000
0000
ENDCHAR
STARTCHAR   ec
ENCODING 236
SWIDTH 480 0
DWIDTH 9 0
BBX 9 18 0 -2
BITMAP
0000
0000
0000
0000
0000
0000
0000
0000
0000
0000
0000
0000
0000
0000
0000
0000
0000
0000
ENDCHAR
STARTCHAR   ed
ENCODING 237
SWIDTH 480 0
DWIDTH 9 0
BBX 9 18 0 -2
BITMAP
0000
0000
0000
0000
0000
0000
0000
0000
0000
0000
0000
0000
0000
0000
0000
0000
0000
0000
ENDCHAR
STARTCHAR   ee
ENCODING 238
SWIDTH 480 0
DWIDTH 9 0
BBX 9 18 0 -2
BITMAP
0000
0000
0000
0000
0000
0000
0000
0000
0000
0000
0000
0000
0000
0000
0000
0000
0000
0000
ENDCHAR
STARTCHAR   ef
ENCODING 239
SWIDTH 480 0
DWIDTH 9 0
BBX 9 18 0 -2
BITMAP
0000
0000
0000
0000
0000
0000
0000
0000
0000
0000
0000
0000
0000
0000
0000
0000
0000
0000
ENDCHAR
STARTCHAR   f0
ENCODING 240
SWIDTH 480 0
DWIDTH 9 0
BBX 9 18 0 -2
BITMAP
0000
0000
0000
0000
0000
0000
0000
0000
0000
0000
0000
0000
0000
0000
0000
0000
0000
0000
ENDCHAR
STARTCHAR   f1
ENCODING 241
SWIDTH 480 0
DWIDTH 9 0
BBX 9 18 0 -2
BITMAP
0000
0000
0000
0000
0000
0000
0000
0000
0000
0000
0000
0000
0000
0000
0000
0000
0000
0000
ENDCHAR
STARTCHAR   f2
ENCODING 242
SWIDTH 480 0
DWIDTH 9 0
BBX 9 18 0 -2
BITMAP
0000
0000
0000
0000
0000
0000
0000
0000
0000
0000
0000
0000
0000
0000
0000
0000
0000
0000
ENDCHAR
STARTCHAR   f3
ENCODING 243
SWIDTH 480 0
DWIDTH 9 0
BBX 9 18 0 -2
BITMAP
0000
0000
0000
0000
0000
0000
0000
0000
0000
0000
0000
0000
0000
0000
0000
0000
0000
0000
ENDCHAR
STARTCHAR   f4
ENCODING 244
SWIDTH 480 0
DWIDTH 9 0
BBX 9 18 0 -2
BITMAP
0000
0000
0000
0000
0000
0000
0000
0000
0000
0000
0000
0000
0000
0000
0000
0000
0000
0000
ENDCHAR
STARTCHAR   f5
ENCODING 245
SWIDTH 480 0
DWIDTH 9 0
BBX 9 18 0 -2
BITMAP
0000
0000
0000
0000
0000
0000
0000
0000
0000
0000
0000
0000
0000
0000
0000
0000
0000
0000
ENDCHAR
STARTCHAR   f6
ENCODING 246
SWIDTH 480 0
DWIDTH 9 0
BBX 9 18 0 -2
BITMAP
0000
0000
0000
0000
0000
0000
0000
0000
0000
0000
0000
0000
0000
0000
0000
0000
0000
0000
ENDCHAR
STARTCHAR   f7
ENCODING 247
SWIDTH 480 0
DWIDTH 9 0
BBX 9 18 0 -2
BITMAP
0000
0000
0000
0000
0000
0000
0000
0000
0000
0000
0000
0000
0000
0000
0000
0000
0000
0000
ENDCHAR
STARTCHAR   f8
ENCODING 248
SWIDTH 480 0
DWIDTH 9 0
BBX 9 18 0 -2
BITMAP
0000
0000
0000
0000
0000
0000
0000
0000
0000
0000
0000
0000
0000
0000
0000
0000
0000
0000
ENDCHAR
STARTCHAR   f9
ENCODING 249
SWIDTH 480 0
DWIDTH 9 0
BBX 9 18 0 -2
BITMAP
0000
0000
0000
0000
0000
0000
0000
0000
0000
0000
0000
0000
0000
0000
0000
0000
0000
0000
ENDCHAR
STARTCHAR   fa
ENCODING 250
SWIDTH 480 0
DWIDTH 9 0
BBX 9 18 0 -2
BITMAP
0000
0000
0000
0000
0000
0000
0000
0000
0000
0000
0000
0000
0000
0000
0000
0000
0000
0000
ENDCHAR
STARTCHAR   fb
ENCODING 251
SWIDTH 480 0
DWIDTH 9 0
BBX 9 18 0 -2
BITMAP
0000
0000
0000
0000
0000
0000
0000
0000
0000
0000
0000
0000
0000
0000
0000
0000
0000
0000
ENDCHAR
STARTCHAR   fc
ENCODING 252
SWIDTH 480 0
DWIDTH 9 0
BBX 9 18 0 -2
BITMAP
0000
0000
0000
0000
0000
0000
0000
0000
0000
0000
0000
0000
0000
0000
0000
0000
0000
0000
ENDCHAR
STARTCHAR   fd
ENCODING 253
SWIDTH 480 0
DWIDTH 9 0
BBX 9 18 0 -2
BITMAP
0000
0000
0000
0000
0000
0000
0000
0000
0000
0000
0000
0000
0000
0000
0000
0000
0000
0000
ENDCHAR
STARTCHAR   fe
ENCODING 254
SWIDTH 480 0
DWIDTH 9 0
BBX 9 18 0 -2
BITMAP
0000
0000
0000
0000
0000
0000
0000
0000
0000
0000
0000
0000
0000
0000
0000
0000
0000
0000
ENDCHAR
STARTCHAR   ff
ENCODING 255
SWIDTH 480 0
DWIDTH 9 0
BBX 9 18 0 -2
BITMAP
0000
0000
0000
0000
0000
0000
0000
0000
0000
0000
0000
0000
0000
0000
0000
0000
0000
0000
ENDCHAR
ENDFONT
